<svg xmlns="http://www.w3.org/2000/svg" width="716" height="112" viewBox="0 0 716 112">
<rect width="100%" height="100%" fill="#0d1117"/>
<text x="14" y="18" fill="#8b97b3" font-family="ui-monospace,Menlo,Consolas,monospace" font-size="11">l · 4×43</text>
<rect x="14" y="34" width="16" height="16" fill="#A9F5A9" stroke="#000" stroke-width="0.5"/>
<rect x="30" y="34" width="16" height="16" fill="#A9F5A9" stroke="#000" stroke-width="0.5"/>
<rect x="46" y="34" width="16" height="16" fill="#454FDF" stroke="#000" stroke-width="0.5"/>
<rect x="62" y="34" width="16" height="16" fill="#A9F5A9" stroke="#000" stroke-width="0.5"/>
<rect x="78" y="34" width="16" height="16" fill="#A9F5A9" stroke="#000" stroke-width="0.5"/>
<rect x="94" y="34" width="16" height="16" fill="#454FDF" stroke="#000" stroke-width="0.5"/>
<rect x="110" y="34" width="16" height="16" fill="#A9F5A9" stroke="#000" stroke-width="0.5"/>
<rect x="126" y="34" width="16" height="16" fill="#A9F5A9" stroke="#000" stroke-width="0.5"/>
<rect x="142" y="34" width="16" height="16" fill="#454FDF" stroke="#000" stroke-width="0.5"/>
<rect x="158" y="34" width="16" height="16" fill="#A9F5A9" stroke="#000" stroke-width="0.5"/>
<rect x="174" y="34" width="16" height="16" fill="#A9F5A9" stroke="#000" stroke-width="0.5"/>
<rect x="190" y="34" width="16" height="16" fill="#454FDF" stroke="#000" stroke-width="0.5"/>
<rect x="206" y="34" width="16" height="16" fill="#A9F5A9" stroke="#000" stroke-width="0.5"/>
<rect x="222" y="34" width="16" height="16" fill="#A9F5A9" stroke="#000" stroke-width="0.5"/>
<rect x="238" y="34" width="16" height="16" fill="#454FDF" stroke="#000" stroke-width="0.5"/>
<rect x="254" y="34" width="16" height="16" fill="#A9F5A9" stroke="#000" stroke-width="0.5"/>
<rect x="270" y="34" width="16" height="16" fill="#A9F5A9" stroke="#000" stroke-width="0.5"/>
<rect x="286" y="34" width="16" height="16" fill="#454FDF" stroke="#000" stroke-width="0.5"/>
<rect x="302" y="34" width="16" height="16" fill="#A9F5A9" stroke="#000" stroke-width="0.5"/>
<rect x="318" y="34" width="16" height="16" fill="#A9F5A9" stroke="#000" stroke-width="0.5"/>
<rect x="334" y="34" width="16" height="16" fill="#454FDF" stroke="#000" stroke-width="0.5"/>
<rect x="350" y="34" width="16" height="16" fill="#A9F5A9" stroke="#000" stroke-width="0.5"/>
<rect x="366" y="34" width="16" height="16" fill="#454FDF" stroke="#000" stroke-width="0.5"/>
<rect x="382" y="34" width="16" height="16" fill="#A9F5A9" stroke="#000" stroke-width="0.5"/>
<rect x="398" y="34" width="16" height="16" fill="#A9F5A9" stroke="#000" stroke-width="0.5"/>
<rect x="414" y="34" width="16" height="16" fill="#454FDF" stroke="#000" stroke-width="0.5"/>
<rect x="430" y="34" width="16" height="16" fill="#A9F5A9" stroke="#000" stroke-width="0.5"/>
<rect x="446" y="34" width="16" height="16" fill="#A9F5A9" stroke="#000" stroke-width="0.5"/>
<rect x="462" y="34" width="16" height="16" fill="#454FDF" stroke="#000" stroke-width="0.5"/>
<rect x="478" y="34" width="16" height="16" fill="#A9F5A9" stroke="#000" stroke-width="0.5"/>
<rect x="494" y="34" width="16" height="16" fill="#A9F5A9" stroke="#000" stroke-width="0.5"/>
<rect x="510" y="34" width="16" height="16" fill="#454FDF" stroke="#000" stroke-width="0.5"/>
<rect x="526" y="34" width="16" height="16" fill="#A9F5A9" stroke="#000" stroke-width="0.5"/>
<rect x="542" y="34" width="16" height="16" fill="#A9F5A9" stroke="#000" stroke-width="0.5"/>
<rect x="558" y="34" width="16" height="16" fill="#454FDF" stroke="#000" stroke-width="0.5"/>
<rect x="574" y="34" width="16" height="16" fill="#A9F5A9" stroke="#000" stroke-width="0.5"/>
<rect x="590" y="34" width="16" height="16" fill="#A9F5A9" stroke="#000" stroke-width="0.5"/>
<rect x="606" y="34" width="16" height="16" fill="#454FDF" stroke="#000" stroke-width="0.5"/>
<rect x="622" y="34" width="16" height="16" fill="#A9F5A9" stroke="#000" stroke-width="0.5"/>
<rect x="638" y="34" width="16" height="16" fill="#A9F5A9" stroke="#000" stroke-width="0.5"/>
<rect x="654" y="34" width="16" height="16" fill="#454FDF" stroke="#000" stroke-width="0.5"/>
<rect x="670" y="34" width="16" height="16" fill="#A9F5A9" stroke="#000" stroke-width="0.5"/>
<rect x="686" y="34" width="16" height="16" fill="#A9F5A9" stroke="#000" stroke-width="0.5"/>
<rect x="14" y="50" width="16" height="16" fill="#A9F5A9" stroke="#000" stroke-width="0.5"/>
<rect x="30" y="50" width="16" height="16" fill="#454FDF" stroke="#000" stroke-width="0.5"/>
<rect x="46" y="50" width="16" height="16" fill="#A9F5A9" stroke="#000" stroke-width="0.5"/>
<rect x="62" y="50" width="16" height="16" fill="#A9F5A9" stroke="#000" stroke-width="0.5"/>
<rect x="78" y="50" width="16" height="16" fill="#454FDF" stroke="#000" stroke-width="0.5"/>
<rect x="94" y="50" width="16" height="16" fill="#A9F5A9" stroke="#000" stroke-width="0.5"/>
<rect x="110" y="50" width="16" height="16" fill="#A9F5A9" stroke="#000" stroke-width="0.5"/>
<rect x="126" y="50" width="16" height="16" fill="#454FDF" stroke="#000" stroke-width="0.5"/>
<rect x="142" y="50" width="16" height="16" fill="#A9F5A9" stroke="#000" stroke-width="0.5"/>
<rect x="158" y="50" width="16" height="16" fill="#A9F5A9" stroke="#000" stroke-width="0.5"/>
<rect x="174" y="50" width="16" height="16" fill="#454FDF" stroke="#000" stroke-width="0.5"/>
<rect x="190" y="50" width="16" height="16" fill="#A9F5A9" stroke="#000" stroke-width="0.5"/>
<rect x="206" y="50" width="16" height="16" fill="#A9F5A9" stroke="#000" stroke-width="0.5"/>
<rect x="222" y="50" width="16" height="16" fill="#454FDF" stroke="#000" stroke-width="0.5"/>
<rect x="238" y="50" width="16" height="16" fill="#A9F5A9" stroke="#000" stroke-width="0.5"/>
<rect x="254" y="50" width="16" height="16" fill="#A9F5A9" stroke="#000" stroke-width="0.5"/>
<rect x="270" y="50" width="16" height="16" fill="#454FDF" stroke="#000" stroke-width="0.5"/>
<rect x="286" y="50" width="16" height="16" fill="#A9F5A9" stroke="#000" stroke-width="0.5"/>
<rect x="302" y="50" width="16" height="16" fill="#A9F5A9" stroke="#000" stroke-width="0.5"/>
<rect x="318" y="50" width="16" height="16" fill="#454FDF" stroke="#000" stroke-width="0.5"/>
<rect x="334" y="50" width="16" height="16" fill="#A9F5A9" stroke="#000" stroke-width="0.5"/>
<rect x="350" y="50" width="16" height="16" fill="#A9F5A9" stroke="#000" stroke-width="0.5"/>
<rect x="366" y="50" width="16" height="16" fill="#A9F5A9" stroke="#000" stroke-width="0.5"/>
<rect x="382" y="50" width="16" height="16" fill="#454FDF" stroke="#000" stroke-width="0.5"/>
<rect x="398" y="50" width="16" height="16" fill="#A9F5A9" stroke="#000" stroke-width="0.5"/>
<rect x="414" y="50" width="16" height="16" fill="#A9F5A9" stroke="#000" stroke-width="0.5"/>
<rect x="430" y="50" width="16" height="16" fill="#454FDF" stroke="#000" stroke-width="0.5"/>
<rect x="446" y="50" width="16" height="16" fill="#A9F5A9" stroke="#000" stroke-width="0.5"/>
<rect x="462" y="50" width="16" height="16" fill="#A9F5A9" stroke="#000" stroke-width="0.5"/>
<rect x="478" y="50" width="16" height="16" fill="#454FDF" stroke="#000" stroke-width="0.5"/>
<rect x="494" y="50" width="16" height="16" fill="#A9F5A9" stroke="#000" stroke-width="0.5"/>
<rect x="510" y="50" width="16" height="16" fill="#A9F5A9" stroke="#000" stroke-width="0.5"/>
<rect x="526" y="50" width="16" height="16" fill="#454FDF" stroke="#000" stroke-width="0.5"/>
<rect x="542" y="50" width="16" height="16" fill="#A9F5A9" stroke="#000" stroke-width="0.5"/>
<rect x="558" y="50" width="16" height="16" fill="#A9F5A9" stroke="#000" stroke-width="0.5"/>
<rect x="574" y="50" width="16" height="16" fill="#454FDF" stroke="#000" stroke-width="0.5"/>
<rect x="590" y="50" width="16" height="16" fill="#A9F5A9" stroke="#000" stroke-width="0.5"/>
<rect x="606" y="50" width="16" height="16" fill="#A9F5A9" stroke="#000" stroke-width="0.5"/>
<rect x="622" y="50" width="16" height="16" fill="#454FDF" stroke="#000" stroke-width="0.5"/>
<rect x="638" y="50" width="16" height="16" fill="#A9F5A9" stroke="#000" stroke-width="0.5"/>
<rect x="654" y="50" width="16" height="16" fill="#A9F5A9" stroke="#000" stroke-width="0.5"/>
<rect x="670" y="50" width="16" height="16" fill="#454FDF" stroke="#000" stroke-width="0.5"/>
<rect x="686" y="50" width="16" height="16" fill="#A9F5A9" stroke="#000" stroke-width="0.5"/>
<rect x="14" y="66" width="16" height="16" fill="#A9F5A9" stroke="#000" stroke-width="0.5"/>
<rect x="30" y="66" width="16" height="16" fill="#454FDF" stroke="#000" stroke-width="0.5"/>
<rect x="46" y="66" width="16" height="16" fill="#A9F5A9" stroke="#000" stroke-width="0.5"/>
<rect x="62" y="66" width="16" height="16" fill="#A9F5A9" stroke="#000" stroke-width="0.5"/>
<rect x="78" y="66" width="16" height="16" fill="#454FDF" stroke="#000" stroke-width="0.5"/>
<rect x="94" y="66" width="16" height="16" fill="#A9F5A9" stroke="#000" stroke-width="0.5"/>
<rect x="110" y="66" width="16" height="16" fill="#A9F5A9" stroke="#000" stroke-width="0.5"/>
<rect x="126" y="66" width="16" height="16" fill="#454FDF" stroke="#000" stroke-width="0.5"/>
<rect x="142" y="66" width="16" height="16" fill="#A9F5A9" stroke="#000" stroke-width="0.5"/>
<rect x="158" y="66" width="16" height="16" fill="#A9F5A9" stroke="#000" stroke-width="0.5"/>
<rect x="174" y="66" width="16" height="16" fill="#454FDF" stroke="#000" stroke-width="0.5"/>
<rect x="190" y="66" width="16" height="16" fill="#A9F5A9" stroke="#000" stroke-width="0.5"/>
<rect x="206" y="66" width="16" height="16" fill="#A9F5A9" stroke="#000" stroke-width="0.5"/>
<rect x="222" y="66" width="16" height="16" fill="#454FDF" stroke="#000" stroke-width="0.5"/>
<rect x="238" y="66" width="16" height="16" fill="#A9F5A9" stroke="#000" stroke-width="0.5"/>
<rect x="254" y="66" width="16" height="16" fill="#A9F5A9" stroke="#000" stroke-width="0.5"/>
<rect x="270" y="66" width="16" height="16" fill="#454FDF" stroke="#000" stroke-width="0.5"/>
<rect x="286" y="66" width="16" height="16" fill="#A9F5A9" stroke="#000" stroke-width="0.5"/>
<rect x="302" y="66" width="16" height="16" fill="#A9F5A9" stroke="#000" stroke-width="0.5"/>
<rect x="318" y="66" width="16" height="16" fill="#454FDF" stroke="#000" stroke-width="0.5"/>
<rect x="334" y="66" width="16" height="16" fill="#A9F5A9" stroke="#000" stroke-width="0.5"/>
<rect x="350" y="66" width="16" height="16" fill="#A9F5A9" stroke="#000" stroke-width="0.5"/>
<rect x="366" y="66" width="16" height="16" fill="#A9F5A9" stroke="#000" stroke-width="0.5"/>
<rect x="382" y="66" width="16" height="16" fill="#454FDF" stroke="#000" stroke-width="0.5"/>
<rect x="398" y="66" width="16" height="16" fill="#A9F5A9" stroke="#000" stroke-width="0.5"/>
<rect x="414" y="66" width="16" height="16" fill="#A9F5A9" stroke="#000" stroke-width="0.5"/>
<rect x="430" y="66" width="16" height="16" fill="#454FDF" stroke="#000" stroke-width="0.5"/>
<rect x="446" y="66" width="16" height="16" fill="#A9F5A9" stroke="#000" stroke-width="0.5"/>
<rect x="462" y="66" width="16" height="16" fill="#A9F5A9" stroke="#000" stroke-width="0.5"/>
<rect x="478" y="66" width="16" height="16" fill="#454FDF" stroke="#000" stroke-width="0.5"/>
<rect x="494" y="66" width="16" height="16" fill="#A9F5A9" stroke="#000" stroke-width="0.5"/>
<rect x="510" y="66" width="16" height="16" fill="#A9F5A9" stroke="#000" stroke-width="0.5"/>
<rect x="526" y="66" width="16" height="16" fill="#454FDF" stroke="#000" stroke-width="0.5"/>
<rect x="542" y="66" width="16" height="16" fill="#A9F5A9" stroke="#000" stroke-width="0.5"/>
<rect x="558" y="66" width="16" height="16" fill="#A9F5A9" stroke="#000" stroke-width="0.5"/>
<rect x="574" y="66" width="16" height="16" fill="#454FDF" stroke="#000" stroke-width="0.5"/>
<rect x="590" y="66" width="16" height="16" fill="#A9F5A9" stroke="#000" stroke-width="0.5"/>
<rect x="606" y="66" width="16" height="16" fill="#A9F5A9" stroke="#000" stroke-width="0.5"/>
<rect x="622" y="66" width="16" height="16" fill="#454FDF" stroke="#000" stroke-width="0.5"/>
<rect x="638" y="66" width="16" height="16" fill="#A9F5A9" stroke="#000" stroke-width="0.5"/>
<rect x="654" y="66" width="16" height="16" fill="#A9F5A9" stroke="#000" stroke-width="0.5"/>
<rect x="670" y="66" width="16" height="16" fill="#454FDF" stroke="#000" stroke-width="0.5"/>
<rect x="686" y="66" width="16" height="16" fill="#A9F5A9" stroke="#000" stroke-width="0.5"/>
<rect x="14" y="82" width="16" height="16" fill="#A9F5A9" stroke="#000" stroke-width="0.5"/>
<rect x="30" y="82" width="16" height="16" fill="#A9F5A9" stroke="#000" stroke-width="0.5"/>
<rect x="46" y="82" width="16" height="16" fill="#454FDF" stroke="#000" stroke-width="0.5"/>
<rect x="62" y="82" width="16" height="16" fill="#A9F5A9" stroke="#000" stroke-width="0.5"/>
<rect x="78" y="82" width="16" height="16" fill="#A9F5A9" stroke="#000" stroke-width="0.5"/>
<rect x="94" y="82" width="16" height="16" fill="#454FDF" stroke="#000" stroke-width="0.5"/>
<rect x="110" y="82" width="16" height="16" fill="#A9F5A9" stroke="#000" stroke-width="0.5"/>
<rect x="126" y="82" width="16" height="16" fill="#A9F5A9" stroke="#000" stroke-width="0.5"/>
<rect x="142" y="82" width="16" height="16" fill="#454FDF" stroke="#000" stroke-width="0.5"/>
<rect x="158" y="82" width="16" height="16" fill="#A9F5A9" stroke="#000" stroke-width="0.5"/>
<rect x="174" y="82" width="16" height="16" fill="#A9F5A9" stroke="#000" stroke-width="0.5"/>
<rect x="190" y="82" width="16" height="16" fill="#454FDF" stroke="#000" stroke-width="0.5"/>
<rect x="206" y="82" width="16" height="16" fill="#A9F5A9" stroke="#000" stroke-width="0.5"/>
<rect x="222" y="82" width="16" height="16" fill="#A9F5A9" stroke="#000" stroke-width="0.5"/>
<rect x="238" y="82" width="16" height="16" fill="#454FDF" stroke="#000" stroke-width="0.5"/>
<rect x="254" y="82" width="16" height="16" fill="#A9F5A9" stroke="#000" stroke-width="0.5"/>
<rect x="270" y="82" width="16" height="16" fill="#A9F5A9" stroke="#000" stroke-width="0.5"/>
<rect x="286" y="82" width="16" height="16" fill="#454FDF" stroke="#000" stroke-width="0.5"/>
<rect x="302" y="82" width="16" height="16" fill="#A9F5A9" stroke="#000" stroke-width="0.5"/>
<rect x="318" y="82" width="16" height="16" fill="#A9F5A9" stroke="#000" stroke-width="0.5"/>
<rect x="334" y="82" width="16" height="16" fill="#454FDF" stroke="#000" stroke-width="0.5"/>
<rect x="350" y="82" width="16" height="16" fill="#A9F5A9" stroke="#000" stroke-width="0.5"/>
<rect x="366" y="82" width="16" height="16" fill="#454FDF" stroke="#000" stroke-width="0.5"/>
<rect x="382" y="82" width="16" height="16" fill="#A9F5A9" stroke="#000" stroke-width="0.5"/>
<rect x="398" y="82" width="16" height="16" fill="#A9F5A9" stroke="#000" stroke-width="0.5"/>
<rect x="414" y="82" width="16" height="16" fill="#454FDF" stroke="#000" stroke-width="0.5"/>
<rect x="430" y="82" width="16" height="16" fill="#A9F5A9" stroke="#000" stroke-width="0.5"/>
<rect x="446" y="82" width="16" height="16" fill="#A9F5A9" stroke="#000" stroke-width="0.5"/>
<rect x="462" y="82" width="16" height="16" fill="#454FDF" stroke="#000" stroke-width="0.5"/>
<rect x="478" y="82" width="16" height="16" fill="#A9F5A9" stroke="#000" stroke-width="0.5"/>
<rect x="494" y="82" width="16" height="16" fill="#A9F5A9" stroke="#000" stroke-width="0.5"/>
<rect x="510" y="82" width="16" height="16" fill="#454FDF" stroke="#000" stroke-width="0.5"/>
<rect x="526" y="82" width="16" height="16" fill="#A9F5A9" stroke="#000" stroke-width="0.5"/>
<rect x="542" y="82" width="16" height="16" fill="#A9F5A9" stroke="#000" stroke-width="0.5"/>
<rect x="558" y="82" width="16" height="16" fill="#454FDF" stroke="#000" stroke-width="0.5"/>
<rect x="574" y="82" width="16" height="16" fill="#A9F5A9" stroke="#000" stroke-width="0.5"/>
<rect x="590" y="82" width="16" height="16" fill="#A9F5A9" stroke="#000" stroke-width="0.5"/>
<rect x="606" y="82" width="16" height="16" fill="#454FDF" stroke="#000" stroke-width="0.5"/>
<rect x="622" y="82" width="16" height="16" fill="#A9F5A9" stroke="#000" stroke-width="0.5"/>
<rect x="638" y="82" width="16" height="16" fill="#A9F5A9" stroke="#000" stroke-width="0.5"/>
<rect x="654" y="82" width="16" height="16" fill="#454FDF" stroke="#000" stroke-width="0.5"/>
<rect x="670" y="82" width="16" height="16" fill="#A9F5A9" stroke="#000" stroke-width="0.5"/>
<rect x="686" y="82" width="16" height="16" fill="#A9F5A9" stroke="#000" stroke-width="0.5"/>
</svg>
